# Exported from ProBuilder
# http://www.procore3d.com/probuilder
# 03/22/2019 09:56:53

mtllib ./PipeEndPlanes.mtl
o PipeEndPlanes

g Pipe
v 0 1 4
v -13.39746 1 -46
v 0 51 4
v -13.39746 51 -46
v -3.397461 1 -46
v 8.660255 1 -1
v -3.397461 51 -46
v 8.660255 51 -1
v 36.60254 1 40.60255
v 0 1 4
v 36.60254 51 40.60255
v 0 51 4
v 8.660255 1 -1
v 41.60254 1 31.94229
v 8.660255 51 -1
v 41.60254 51 31.94229
v 86.60255 1 54
v 36.60254 1 40.60255
v 86.60255 51 54
v 36.60254 51 40.60255
v 41.60254 1 31.94229
v 86.60255 1 44
v 41.60254 51 31.94229
v 86.60255 51 44
v 136.6025 1 40.60254
v 86.60255 1 54
v 136.6025 51 40.60254
v 86.60255 51 54
v 86.60255 1 44
v 131.6025 1 31.94228
v 86.60255 51 44
v 131.6025 51 31.94228
v 173.2051 1 4.000008
v 136.6025 1 40.60254
v 173.2051 51 4.000008
v 136.6025 51 40.60254
v 131.6025 1 31.94228
v 164.5448 1 -0.9999962
v 131.6025 51 31.94228
v 164.5448 51 -0.9999962
v 186.6025 1 -46.00001
v 173.2051 1 4.000008
v 186.6025 51 -46.00001
v 173.2051 51 4.000008
v 164.5448 1 -0.9999962
v 176.6025 1 -46.00001
v 164.5448 51 -0.9999962
v 176.6025 51 -46.00001
v 173.2051 1 -96
v 186.6025 1 -46.00001
v 173.2051 51 -96
v 186.6025 51 -46.00001
v 176.6025 1 -46.00001
v 164.5448 1 -91
v 176.6025 51 -46.00001
v 164.5448 51 -91
v 136.6025 1 -132.6025
v 173.2051 1 -96
v 136.6025 51 -132.6025
v 173.2051 51 -96
v 164.5448 1 -91
v 131.6025 1 -123.9423
v 164.5448 51 -91
v 131.6025 51 -123.9423
v 86.60254 1 -146
v 136.6025 1 -132.6025
v 86.60254 51 -146
v 136.6025 51 -132.6025
v 131.6025 1 -123.9423
v 86.60254 1 -136
v 131.6025 51 -123.9423
v 86.60254 51 -136
v 36.60255 1 -132.6025
v 86.60254 1 -146
v 36.60255 51 -132.6025
v 86.60254 51 -146
v 86.60254 1 -136
v 41.60255 1 -123.9423
v 86.60254 51 -136
v 41.60255 51 -123.9423
v 7.629395E-06 1 -96.00002
v 36.60255 1 -132.6025
v 7.629395E-06 51 -96.00002
v 36.60255 51 -132.6025
v 41.60255 1 -123.9423
v 8.660263 1 -91.00002
v 41.60255 51 -123.9423
v 8.660263 51 -91.00002
v -13.39746 1 -46
v 7.629395E-06 1 -96.00002
v -13.39746 51 -46
v 7.629395E-06 51 -96.00002
v 8.660263 1 -91.00002
v -3.397461 1 -46
v 8.660263 51 -91.00002
v -3.397461 51 -46
v 0 51 4
v -13.39746 51 -46
v 0 101 4
v -13.39746 101 -46
v -3.397461 51 -46
v 8.660255 51 -1
v -3.397461 101 -46
v 8.660255 101 -1
v 36.60254 51 40.60255
v 0 51 4
v 36.60254 101 40.60255
v 0 101 4
v 8.660255 51 -1
v 41.60254 51 31.94229
v 8.660255 101 -1
v 41.60254 101 31.94229
v 86.60255 51 54
v 36.60254 51 40.60255
v 86.60255 101 54
v 36.60254 101 40.60255
v 41.60254 51 31.94229
v 86.60255 51 44
v 41.60254 101 31.94229
v 86.60255 101 44
v 136.6025 51 40.60254
v 86.60255 51 54
v 136.6025 101 40.60254
v 86.60255 101 54
v 86.60255 51 44
v 131.6025 51 31.94228
v 86.60255 101 44
v 131.6025 101 31.94228
v 173.2051 51 4.000008
v 136.6025 51 40.60254
v 173.2051 101 4.000008
v 136.6025 101 40.60254
v 131.6025 51 31.94228
v 164.5448 51 -0.9999962
v 131.6025 101 31.94228
v 164.5448 101 -0.9999962
v 186.6025 51 -46.00001
v 173.2051 51 4.000008
v 186.6025 101 -46.00001
v 173.2051 101 4.000008
v 164.5448 51 -0.9999962
v 176.6025 51 -46.00001
v 164.5448 101 -0.9999962
v 176.6025 101 -46.00001
v 173.2051 51 -96
v 186.6025 51 -46.00001
v 173.2051 101 -96
v 186.6025 101 -46.00001
v 176.6025 51 -46.00001
v 164.5448 51 -91
v 176.6025 101 -46.00001
v 164.5448 101 -91
v 136.6025 51 -132.6025
v 173.2051 51 -96
v 136.6025 101 -132.6025
v 173.2051 101 -96
v 164.5448 51 -91
v 131.6025 51 -123.9423
v 164.5448 101 -91
v 131.6025 101 -123.9423
v 86.60254 51 -146
v 136.6025 51 -132.6025
v 86.60254 101 -146
v 136.6025 101 -132.6025
v 131.6025 51 -123.9423
v 86.60254 51 -136
v 131.6025 101 -123.9423
v 86.60254 101 -136
v 36.60255 51 -132.6025
v 86.60254 51 -146
v 36.60255 101 -132.6025
v 86.60254 101 -146
v 86.60254 51 -136
v 41.60255 51 -123.9423
v 86.60254 101 -136
v 41.60255 101 -123.9423
v 7.629395E-06 51 -96.00002
v 36.60255 51 -132.6025
v 7.629395E-06 101 -96.00002
v 36.60255 101 -132.6025
v 41.60255 51 -123.9423
v 8.660263 51 -91.00002
v 41.60255 101 -123.9423
v 8.660263 101 -91.00002
v -13.39746 51 -46
v 7.629395E-06 51 -96.00002
v -13.39746 101 -46
v 7.629395E-06 101 -96.00002
v 8.660263 51 -91.00002
v -3.397461 51 -46
v 8.660263 101 -91.00002
v -3.397461 101 -46
v -13.39746 1 -46
v 0 1 4
v -3.397461 1 -46
v 8.660255 1 -1
v 0 101 4
v -13.39746 101 -46
v 8.660255 101 -1
v -3.397461 101 -46
v 0 1 4
v 36.60254 1 40.60255
v 8.660255 1 -1
v 41.60254 1 31.94229
v 36.60254 101 40.60255
v 0 101 4
v 41.60254 101 31.94229
v 8.660255 101 -1
v 36.60254 1 40.60255
v 86.60255 1 54
v 41.60254 1 31.94229
v 86.60255 1 44
v 86.60255 101 54
v 36.60254 101 40.60255
v 86.60255 101 44
v 41.60254 101 31.94229
v 86.60255 1 54
v 136.6025 1 40.60254
v 86.60255 1 44
v 131.6025 1 31.94228
v 136.6025 101 40.60254
v 86.60255 101 54
v 131.6025 101 31.94228
v 86.60255 101 44
v 136.6025 1 40.60254
v 173.2051 1 4.000008
v 131.6025 1 31.94228
v 164.5448 1 -0.9999962
v 173.2051 101 4.000008
v 136.6025 101 40.60254
v 164.5448 101 -0.9999962
v 131.6025 101 31.94228
v 173.2051 1 4.000008
v 186.6025 1 -46.00001
v 164.5448 1 -0.9999962
v 176.6025 1 -46.00001
v 186.6025 101 -46.00001
v 173.2051 101 4.000008
v 176.6025 101 -46.00001
v 164.5448 101 -0.9999962
v 186.6025 1 -46.00001
v 173.2051 1 -96
v 176.6025 1 -46.00001
v 164.5448 1 -91
v 173.2051 101 -96
v 186.6025 101 -46.00001
v 164.5448 101 -91
v 176.6025 101 -46.00001
v 173.2051 1 -96
v 136.6025 1 -132.6025
v 164.5448 1 -91
v 131.6025 1 -123.9423
v 136.6025 101 -132.6025
v 173.2051 101 -96
v 131.6025 101 -123.9423
v 164.5448 101 -91
v 136.6025 1 -132.6025
v 86.60254 1 -146
v 131.6025 1 -123.9423
v 86.60254 1 -136
v 86.60254 101 -146
v 136.6025 101 -132.6025
v 86.60254 101 -136
v 131.6025 101 -123.9423
v 86.60254 1 -146
v 36.60255 1 -132.6025
v 86.60254 1 -136
v 41.60255 1 -123.9423
v 36.60255 101 -132.6025
v 86.60254 101 -146
v 41.60255 101 -123.9423
v 86.60254 101 -136
v 36.60255 1 -132.6025
v 7.629395E-06 1 -96.00002
v 41.60255 1 -123.9423
v 8.660263 1 -91.00002
v 7.629395E-06 101 -96.00002
v 36.60255 101 -132.6025
v 8.660263 101 -91.00002
v 41.60255 101 -123.9423
v 7.629395E-06 1 -96.00002
v -13.39746 1 -46
v 8.660263 1 -91.00002
v -3.397461 1 -46
v -13.39746 101 -46
v 7.629395E-06 101 -96.00002
v -3.397461 101 -46
v 8.660263 101 -91.00002

vn -0.9659259 0 0.2588191
vn -0.9659259 0 0.2588191
vn -0.9659259 0 0.2588191
vn -0.9659259 0 0.2588191
vn 0.9659258 0 -0.2588191
vn 0.9659258 0 -0.2588191
vn 0.9659258 0 -0.2588191
vn 0.9659258 0 -0.2588191
vn -0.7071068 0 0.7071068
vn -0.7071068 0 0.7071068
vn -0.7071068 0 0.7071068
vn -0.7071068 0 0.7071068
vn 0.7071068 0 -0.7071068
vn 0.7071068 0 -0.7071068
vn 0.7071068 0 -0.7071068
vn 0.7071068 0 -0.7071068
vn -0.2588189 0 0.9659258
vn -0.2588189 0 0.9659258
vn -0.2588189 0 0.9659258
vn -0.2588189 0 0.9659258
vn 0.2588189 0 -0.9659259
vn 0.2588189 0 -0.9659259
vn 0.2588189 0 -0.9659259
vn 0.2588189 0 -0.9659259
vn 0.2588191 0 0.9659258
vn 0.2588191 0 0.9659258
vn 0.2588191 0 0.9659258
vn 0.2588191 0 0.9659258
vn -0.2588191 0 -0.9659258
vn -0.2588191 0 -0.9659258
vn -0.2588191 0 -0.9659258
vn -0.2588191 0 -0.9659258
vn 0.7071067 0 0.7071068
vn 0.7071067 0 0.7071068
vn 0.7071067 0 0.7071068
vn 0.7071067 0 0.7071068
vn -0.7071067 0 -0.7071069
vn -0.7071067 0 -0.7071069
vn -0.7071067 0 -0.7071069
vn -0.7071067 0 -0.7071069
vn 0.9659259 0 0.258819
vn 0.9659259 0 0.258819
vn 0.9659259 0 0.258819
vn 0.9659259 0 0.258819
vn -0.9659259 0 -0.2588189
vn -0.9659259 0 -0.2588189
vn -0.9659259 0 -0.2588189
vn -0.9659259 0 -0.2588189
vn 0.9659258 0 -0.2588191
vn 0.9659258 0 -0.2588191
vn 0.9659258 0 -0.2588191
vn 0.9659258 0 -0.2588191
vn -0.9659259 0 0.258819
vn -0.9659259 0 0.258819
vn -0.9659259 0 0.258819
vn -0.9659259 0 0.258819
vn 0.7071068 0 -0.7071068
vn 0.7071068 0 -0.7071068
vn 0.7071068 0 -0.7071068
vn 0.7071068 0 -0.7071068
vn -0.7071068 0 0.7071068
vn -0.7071068 0 0.7071068
vn -0.7071068 0 0.7071068
vn -0.7071068 0 0.7071068
vn 0.2588191 0 -0.9659259
vn 0.2588191 0 -0.9659259
vn 0.2588191 0 -0.9659259
vn 0.2588191 0 -0.9659259
vn -0.258819 0 0.9659259
vn -0.258819 0 0.9659259
vn -0.258819 0 0.9659259
vn -0.258819 0 0.9659259
vn -0.2588191 0 -0.9659258
vn -0.2588191 0 -0.9659258
vn -0.2588191 0 -0.9659258
vn -0.2588191 0 -0.9659258
vn 0.258819 0 0.9659259
vn 0.258819 0 0.9659259
vn 0.258819 0 0.9659259
vn 0.258819 0 0.9659259
vn -0.7071066 0 -0.7071069
vn -0.7071066 0 -0.7071069
vn -0.7071066 0 -0.7071069
vn -0.7071066 0 -0.7071069
vn 0.7071067 0 0.7071069
vn 0.7071067 0 0.7071069
vn 0.7071067 0 0.7071069
vn 0.7071067 0 0.7071069
vn -0.9659259 0 -0.2588191
vn -0.9659259 0 -0.2588191
vn -0.9659259 0 -0.2588191
vn -0.9659259 0 -0.2588191
vn 0.9659258 0 0.2588192
vn 0.9659258 0 0.2588192
vn 0.9659258 0 0.2588192
vn 0.9659258 0 0.2588192
vn -0.9659259 0 0.2588191
vn -0.9659259 0 0.2588191
vn -0.9659259 0 0.2588191
vn -0.9659259 0 0.2588191
vn 0.9659258 0 -0.2588191
vn 0.9659258 0 -0.2588191
vn 0.9659258 0 -0.2588191
vn 0.9659258 0 -0.2588191
vn -0.7071068 0 0.7071068
vn -0.7071068 0 0.7071068
vn -0.7071068 0 0.7071068
vn -0.7071068 0 0.7071068
vn 0.7071068 0 -0.7071068
vn 0.7071068 0 -0.7071068
vn 0.7071068 0 -0.7071068
vn 0.7071068 0 -0.7071068
vn -0.2588189 0 0.9659258
vn -0.2588189 0 0.9659258
vn -0.2588189 0 0.9659258
vn -0.2588189 0 0.9659258
vn 0.2588189 0 -0.9659259
vn 0.2588189 0 -0.9659259
vn 0.2588189 0 -0.9659259
vn 0.2588189 0 -0.9659259
vn 0.2588191 0 0.9659258
vn 0.2588191 0 0.9659258
vn 0.2588191 0 0.9659258
vn 0.2588191 0 0.9659258
vn -0.2588191 0 -0.9659258
vn -0.2588191 0 -0.9659258
vn -0.2588191 0 -0.9659258
vn -0.2588191 0 -0.9659258
vn 0.7071067 0 0.7071068
vn 0.7071067 0 0.7071068
vn 0.7071067 0 0.7071068
vn 0.7071067 0 0.7071068
vn -0.7071067 0 -0.7071069
vn -0.7071067 0 -0.7071069
vn -0.7071067 0 -0.7071069
vn -0.7071067 0 -0.7071069
vn 0.9659259 0 0.258819
vn 0.9659259 0 0.258819
vn 0.9659259 0 0.258819
vn 0.9659259 0 0.258819
vn -0.9659259 0 -0.2588189
vn -0.9659259 0 -0.2588189
vn -0.9659259 0 -0.2588189
vn -0.9659259 0 -0.2588189
vn 0.9659258 0 -0.2588191
vn 0.9659258 0 -0.2588191
vn 0.9659258 0 -0.2588191
vn 0.9659258 0 -0.2588191
vn -0.9659259 0 0.258819
vn -0.9659259 0 0.258819
vn -0.9659259 0 0.258819
vn -0.9659259 0 0.258819
vn 0.7071068 0 -0.7071068
vn 0.7071068 0 -0.7071068
vn 0.7071068 0 -0.7071068
vn 0.7071068 0 -0.7071068
vn -0.7071068 0 0.7071068
vn -0.7071068 0 0.7071068
vn -0.7071068 0 0.7071068
vn -0.7071068 0 0.7071068
vn 0.2588191 0 -0.9659259
vn 0.2588191 0 -0.9659259
vn 0.2588191 0 -0.9659259
vn 0.2588191 0 -0.9659259
vn -0.258819 0 0.9659259
vn -0.258819 0 0.9659259
vn -0.258819 0 0.9659259
vn -0.258819 0 0.9659259
vn -0.2588191 0 -0.9659258
vn -0.2588191 0 -0.9659258
vn -0.2588191 0 -0.9659258
vn -0.2588191 0 -0.9659258
vn 0.258819 0 0.9659259
vn 0.258819 0 0.9659259
vn 0.258819 0 0.9659259
vn 0.258819 0 0.9659259
vn -0.7071066 0 -0.7071069
vn -0.7071066 0 -0.7071069
vn -0.7071066 0 -0.7071069
vn -0.7071066 0 -0.7071069
vn 0.7071067 0 0.7071069
vn 0.7071067 0 0.7071069
vn 0.7071067 0 0.7071069
vn 0.7071067 0 0.7071069
vn -0.9659259 0 -0.2588191
vn -0.9659259 0 -0.2588191
vn -0.9659259 0 -0.2588191
vn -0.9659259 0 -0.2588191
vn 0.9659258 0 0.2588192
vn 0.9659258 0 0.2588192
vn 0.9659258 0 0.2588192
vn 0.9659258 0 0.2588192
vn 0 -1 0
vn 0 -0.9999999 0
vn 0 -1 0
vn 0 -1 0
vn 0 1 0
vn 0 1 0
vn 0 0.9999999 0
vn 0 1 0
vn 0 -1 0
vn 0 -0.9999999 0
vn 0 -1 0
vn 0 -1 0
vn 0 1 0
vn 0 0.9999999 0
vn 0 0.9999999 0
vn 0 1 0
vn 0 -1 0
vn 0 -1 0
vn 0 -1 0
vn 0 -1 0
vn 0 1 0
vn 0 1 0
vn 0 1 0
vn 0 1 0
vn 0 -1 0
vn 0 -1 0
vn 0 -1 0
vn 0 -1 0
vn 0 1 0
vn 0 1 0
vn 0 1 0
vn 0 1 0
vn 0 -1 0
vn 0 -1 0
vn 0 -0.9999999 0
vn 0 -1 0
vn 0 1 0
vn 0 1 0
vn 0 0.9999999 0
vn 0 1 0
vn 0 -1 0
vn 0 -0.9999999 0
vn 0 -1 0
vn 0 -1 0
vn 0 1 0
vn 0 1 0
vn 0 1 0
vn 0 1 0
vn 0 -0.9999999 0
vn 0 -1 0
vn 0 -1 0
vn 0 -0.9999999 0
vn 0 1 0
vn 0 1 0
vn 0 1 0
vn 0 1 0
vn 0 -1 0
vn 0 -1 0
vn 0 -0.9999999 0
vn 0 -1 0
vn 0 1 0
vn 0 1 0
vn 0 0.9999999 0
vn 0 1 0
vn 0 -0.9999999 0
vn 0 -1 0
vn 0 -1 0
vn 0 -0.9999999 0
vn 0 1 0
vn 0 1 0
vn 0 1 0
vn 0 1 0
vn 0 -0.9999999 0
vn 0 -1 0
vn 0 -1 0
vn 0 -0.9999999 0
vn 0 1 0
vn 0 1 0
vn 0 1 0
vn 0 1 0
vn 0 -1 0
vn 0 -1 0
vn 0 -1 0
vn 0 -1 0
vn 0 1 0
vn 0 1 0
vn 0 1 0
vn 0 1 0
vn 0 -0.9999999 0
vn 0 -0.9999999 0
vn 0 -1 0
vn 0 -0.9999999 0
vn 0 1 0
vn 0 0.9999999 0
vn 0 1 0
vn 0 1 0

vt 0 0
vt -51.76381 0
vt 0 50
vt -51.76381 50
vt 49.17562 0
vt 2.58819 0
vt 49.17562 50
vt 2.58819 50
vt 51.76382 0
vt 0 0
vt 51.76382 50
vt 0 50
vt -2.588191 0
vt -49.17562 0
vt -2.588191 50
vt -49.17562 50
vt 96.59259 0
vt 44.82877 0
vt 96.59259 50
vt 44.82877 50
vt -47.41697 0
vt -94.00439 0
vt -47.41697 50
vt -94.00439 50
vt 122.4745 0
vt 70.71068 0
vt 122.4745 50
vt 70.71068 50
vt -73.29887 0
vt -119.8863 0
vt -73.29887 50
vt -119.8863 50
vt 122.4745 0
vt 70.71069 0
vt 122.4745 50
vt 70.71069 50
vt -73.2989 0
vt -119.8863 0
vt -73.2989 50
vt -119.8863 50
vt 96.59258 0
vt 44.82876 0
vt 96.59258 50
vt 44.82876 50
vt -47.41693 0
vt -94.00437 0
vt -47.41693 50
vt -94.00437 50
vt 51.76379 0
vt -9.378341E-06 0
vt 51.76379 50
vt -9.378341E-06 50
vt -2.588206 0
vt -49.17563 0
vt -2.588206 50
vt -49.17563 50
vt 0 0
vt -51.76381 0
vt 0 50
vt -51.76381 50
vt 49.17562 0
vt 2.588186 0
vt 49.17562 50
vt 2.588186 50
vt -44.82877 0
vt -96.59258 0
vt -44.82877 50
vt -96.59258 50
vt 94.00441 0
vt 47.41698 0
vt 94.00441 50
vt 47.41698 50
vt -70.71069 0
vt -122.4745 0
vt -70.71069 50
vt -122.4745 50
vt 119.8863 0
vt 73.29887 0
vt 119.8863 50
vt 73.29887 50
vt -70.71068 0
vt -122.4745 0
vt -70.71068 50
vt -122.4745 50
vt 119.8863 0
vt 73.29888 0
vt 119.8863 50
vt 73.29888 50
vt -44.82877 0
vt -96.59261 0
vt -44.82877 50
vt -96.59261 50
vt 94.00441 0
vt 47.41696 0
vt 94.00441 50
vt 47.41696 50
vt 0 50
vt -51.76381 50
vt 0 100
vt -51.76381 100
vt 49.17562 50
vt 2.58819 50
vt 49.17562 100
vt 2.58819 100
vt 51.76382 50
vt 0 50
vt 51.76382 100
vt 0 100
vt -2.588191 50
vt -49.17562 50
vt -2.588191 100
vt -49.17562 100
vt 96.59259 50
vt 44.82877 50
vt 96.59259 100
vt 44.82877 100
vt -47.41697 50
vt -94.00439 50
vt -47.41697 100
vt -94.00439 100
vt 122.4745 50
vt 70.71068 50
vt 122.4745 100
vt 70.71068 100
vt -73.29887 50
vt -119.8863 50
vt -73.29887 100
vt -119.8863 100
vt 122.4745 50
vt 70.71069 50
vt 122.4745 100
vt 70.71069 100
vt -73.2989 50
vt -119.8863 50
vt -73.2989 100
vt -119.8863 100
vt 96.59258 50
vt 44.82876 50
vt 96.59258 100
vt 44.82876 100
vt -47.41693 50
vt -94.00437 50
vt -47.41693 100
vt -94.00437 100
vt 51.76379 50
vt -9.378341E-06 50
vt 51.76379 100
vt -9.378341E-06 100
vt -2.588206 50
vt -49.17563 50
vt -2.588206 100
vt -49.17563 100
vt 0 50
vt -51.76381 50
vt 0 100
vt -51.76381 100
vt 49.17562 50
vt 2.588186 50
vt 49.17562 100
vt 2.588186 100
vt -44.82877 50
vt -96.59258 50
vt -44.82877 100
vt -96.59258 100
vt 94.00441 50
vt 47.41698 50
vt 94.00441 100
vt 47.41698 100
vt -70.71069 50
vt -122.4745 50
vt -70.71069 100
vt -122.4745 100
vt 119.8863 50
vt 73.29887 50
vt 119.8863 100
vt 73.29887 100
vt -70.71068 50
vt -122.4745 50
vt -70.71068 100
vt -122.4745 100
vt 119.8863 50
vt 73.29888 50
vt 119.8863 100
vt 73.29888 100
vt -44.82877 50
vt -96.59261 50
vt -44.82877 100
vt -96.59261 100
vt 94.00441 50
vt 47.41696 50
vt 94.00441 100
vt 47.41696 100
vt -13.39746 -50
vt 0 0
vt -3.397461 -50
vt 8.660255 -5
vt 0 0
vt 13.39746 -50
vt -8.660255 -5
vt 3.397461 -50
vt 0 0
vt 36.60254 36.60255
vt 8.660255 -5
vt 41.60254 27.94229
vt -36.60254 36.60255
vt 0 0
vt -41.60254 27.94229
vt -8.660255 -5
vt 36.60254 36.60255
vt 86.60255 50
vt 41.60254 27.94229
vt 86.60255 40
vt -86.60255 50
vt -36.60254 36.60255
vt -86.60255 40
vt -41.60254 27.94229
vt 86.60255 50
vt 136.6025 36.60254
vt 86.60255 40
vt 131.6025 27.94228
vt -136.6025 36.60254
vt -86.60255 50
vt -131.6025 27.94228
vt -86.60255 40
vt 136.6025 36.60254
vt 173.2051 7.629395E-06
vt 131.6025 27.94228
vt 164.5448 -4.999996
vt -173.2051 7.629395E-06
vt -136.6025 36.60254
vt -164.5448 -4.999996
vt -131.6025 27.94228
vt 173.2051 7.629395E-06
vt 186.6025 -50.00001
vt 164.5448 -4.999996
vt 176.6025 -50.00001
vt -186.6025 -50.00001
vt -173.2051 7.629395E-06
vt -176.6025 -50.00001
vt -164.5448 -4.999996
vt 186.6025 -50.00001
vt 173.2051 -100
vt 176.6025 -50.00001
vt 164.5448 -95
vt -173.2051 -100
vt -186.6025 -50.00001
vt -164.5448 -95
vt -176.6025 -50.00001
vt 173.2051 -100
vt 136.6025 -136.6025
vt 164.5448 -95
vt 131.6025 -127.9423
vt -136.6025 -136.6025
vt -173.2051 -100
vt -131.6025 -127.9423
vt -164.5448 -95
vt 136.6025 -136.6025
vt 86.60254 -150
vt 131.6025 -127.9423
vt 86.60254 -140
vt -86.60254 -150
vt -136.6025 -136.6025
vt -86.60254 -140
vt -131.6025 -127.9423
vt 86.60254 -150
vt 36.60255 -136.6025
vt 86.60254 -140
vt 41.60255 -127.9423
vt -36.60255 -136.6025
vt -86.60254 -150
vt -41.60255 -127.9423
vt -86.60254 -140
vt 36.60255 -136.6025
vt 7.629395E-06 -100
vt 41.60255 -127.9423
vt 8.660263 -95.00002
vt -7.629395E-06 -100
vt -36.60255 -136.6025
vt -8.660263 -95.00002
vt -41.60255 -127.9423
vt 7.629395E-06 -100
vt -13.39746 -50
vt 8.660263 -95.00002
vt -3.397461 -50
vt 13.39746 -50
vt -7.629395E-06 -100
vt 3.397461 -50
vt -8.660263 -95.00002

g Pipe
usemtl mat-mobileDiffuse
f 3/3/3 4/4/4 2/2/2 1/1/1
f 7/7/7 8/8/8 6/6/6 5/5/5
f 11/11/11 12/12/12 10/10/10 9/9/9
f 15/15/15 16/16/16 14/14/14 13/13/13
f 19/19/19 20/20/20 18/18/18 17/17/17
f 23/23/23 24/24/24 22/22/22 21/21/21
f 27/27/27 28/28/28 26/26/26 25/25/25
f 31/31/31 32/32/32 30/30/30 29/29/29
f 35/35/35 36/36/36 34/34/34 33/33/33
f 39/39/39 40/40/40 38/38/38 37/37/37
f 43/43/43 44/44/44 42/42/42 41/41/41
f 47/47/47 48/48/48 46/46/46 45/45/45
f 51/51/51 52/52/52 50/50/50 49/49/49
f 55/55/55 56/56/56 54/54/54 53/53/53
f 59/59/59 60/60/60 58/58/58 57/57/57
f 63/63/63 64/64/64 62/62/62 61/61/61
f 67/67/67 68/68/68 66/66/66 65/65/65
f 71/71/71 72/72/72 70/70/70 69/69/69
f 75/75/75 76/76/76 74/74/74 73/73/73
f 79/79/79 80/80/80 78/78/78 77/77/77
f 83/83/83 84/84/84 82/82/82 81/81/81
f 87/87/87 88/88/88 86/86/86 85/85/85
f 91/91/91 92/92/92 90/90/90 89/89/89
f 95/95/95 96/96/96 94/94/94 93/93/93
f 99/99/99 100/100/100 98/98/98 97/97/97
f 103/103/103 104/104/104 102/102/102 101/101/101
f 107/107/107 108/108/108 106/106/106 105/105/105
f 111/111/111 112/112/112 110/110/110 109/109/109
f 115/115/115 116/116/116 114/114/114 113/113/113
f 119/119/119 120/120/120 118/118/118 117/117/117
f 123/123/123 124/124/124 122/122/122 121/121/121
f 127/127/127 128/128/128 126/126/126 125/125/125
f 131/131/131 132/132/132 130/130/130 129/129/129
f 135/135/135 136/136/136 134/134/134 133/133/133
f 139/139/139 140/140/140 138/138/138 137/137/137
f 143/143/143 144/144/144 142/142/142 141/141/141
f 147/147/147 148/148/148 146/146/146 145/145/145
f 151/151/151 152/152/152 150/150/150 149/149/149
f 155/155/155 156/156/156 154/154/154 153/153/153
f 159/159/159 160/160/160 158/158/158 157/157/157
f 163/163/163 164/164/164 162/162/162 161/161/161
f 167/167/167 168/168/168 166/166/166 165/165/165
f 171/171/171 172/172/172 170/170/170 169/169/169
f 175/175/175 176/176/176 174/174/174 173/173/173
f 179/179/179 180/180/180 178/178/178 177/177/177
f 183/183/183 184/184/184 182/182/182 181/181/181
f 187/187/187 188/188/188 186/186/186 185/185/185
f 191/191/191 192/192/192 190/190/190 189/189/189
f 195/195/195 196/196/196 194/194/194 193/193/193
f 199/199/199 200/200/200 198/198/198 197/197/197
f 203/203/203 204/204/204 202/202/202 201/201/201
f 207/207/207 208/208/208 206/206/206 205/205/205
f 211/211/211 212/212/212 210/210/210 209/209/209
f 215/215/215 216/216/216 214/214/214 213/213/213
f 219/219/219 220/220/220 218/218/218 217/217/217
f 223/223/223 224/224/224 222/222/222 221/221/221
f 227/227/227 228/228/228 226/226/226 225/225/225
f 231/231/231 232/232/232 230/230/230 229/229/229
f 235/235/235 236/236/236 234/234/234 233/233/233
f 239/239/239 240/240/240 238/238/238 237/237/237
f 243/243/243 244/244/244 242/242/242 241/241/241
f 247/247/247 248/248/248 246/246/246 245/245/245
f 251/251/251 252/252/252 250/250/250 249/249/249
f 255/255/255 256/256/256 254/254/254 253/253/253
f 259/259/259 260/260/260 258/258/258 257/257/257
f 263/263/263 264/264/264 262/262/262 261/261/261
f 267/267/267 268/268/268 266/266/266 265/265/265
f 271/271/271 272/272/272 270/270/270 269/269/269
f 275/275/275 276/276/276 274/274/274 273/273/273
f 279/279/279 280/280/280 278/278/278 277/277/277
f 283/283/283 284/284/284 282/282/282 281/281/281
f 287/287/287 288/288/288 286/286/286 285/285/285

