# ProBuilder 4.0.5
# https://unity3d.com/unity/features/worldbuilding/probuilder
# 7/1/2019 10:56:40 PM

mtllib ./2SidedTriPointer.mtl
o 2SidedTriPointer

g New Game Object
v -0.05 2.1 7.450581E-09
v -0.15 0.1 0.1732051
v 0.15 0.1 7.450581E-09
v -0.05 0.1 7.450581E-09
v -0.15 0.1 -0.1732051
v 0.15 -0.1 7.450581E-09
v -0.15 -0.1 0.1732051
v -0.05 -2.1 7.450581E-09
v -0.05 -0.1 7.450581E-09
v -0.15 -0.1 -0.1732051

vt 0.04330127 2.098628
vt 0.2165064 0.09612994
vt -0.1299038 0.09612994
vt -0.15 7.450581E-09
vt 0.15 0.1732051
vt 0.05 7.450581E-09
vt 0.15 -0.1732051
vt -0.1299038 -0.09612994
vt 0.2165064 -0.09612994
vt 0.04330127 -2.098628
vt -0.05 7.450581E-09
vt -0.15 0.1732051
vt 0.15 7.450581E-09
vt -0.15 -0.1732051
vt -0.1732051 -0.09238461
vt 0.1732051 -0.09238461
vt -1.175218E-08 -2.094883
vt -0.2165063 -0.09612994
vt 0.1299038 -0.09612994
vt -0.04330127 -2.098628
vt -1.175218E-08 2.094883
vt 0.1732051 0.09238461
vt -0.1732051 0.09238461
vt -0.04330127 2.098628
vt 0.1299038 0.09612994
vt -0.2165063 0.09612994

vn 0.4993762 0.04993762 0.8649449
vn 0 -1 0
vn 0.4993762 -0.04993762 0.8649449
vn 0 1 0
vn -0.9987524 -0.04993762 -8.592456E-08
vn 0.4993762 -0.04993762 -0.8649449
vn -0.9987524 0.04993762 -8.592456E-08
vn 0.4993762 0.04993762 -0.8649449

g New Game Object
usemtl mat-mobileDiffuse
f 1/1/1 2/2/1 3/3/1
f 3/4/2 2/5/2 4/6/2
f 2/5/2 5/7/2 4/6/2
f 5/7/2 3/4/2 4/6/2
f 6/8/3 7/9/3 8/10/3
f 9/11/4 7/12/4 6/13/4
f 9/11/4 10/14/4 7/12/4
f 9/11/4 6/13/4 10/14/4
f 7/15/5 10/16/5 8/17/5
f 10/18/6 6/19/6 8/20/6
f 1/21/7 5/22/7 2/23/7
f 1/24/8 3/25/8 5/26/8

