# Exported from ProBuilder
# http://www.procore3d.com/probuilder
# 12/28/2018 10:40:47

mtllib ./MenuRing.mtl
o MenuRing

g Reset
v -1.791981 0.711593 11.70849
v -1.952253 0.711593 8.962326
v -1.791981 0.8789992 11.70849
v -1.952253 0.8789992 8.962326
v -1.612972 0.711593 9.179806
v -1.480302 0.711593 11.45302
v -1.612972 0.8789992 9.179806
v -1.480302 0.8789992 11.45302
v 0.8693008 0.711593 12.40467
v -1.791981 0.711593 11.70849
v 0.8693008 0.8789992 12.40467
v -1.791981 0.8789992 11.70849
v -1.480302 0.711593 11.45302
v 0.7226478 0.711593 12.0293
v -1.480302 0.8789992 11.45302
v 0.7226478 0.8789992 12.0293
v 2.353792 0.711593 10.08877
v 0.8693008 0.711593 12.40467
v 2.353792 0.8789992 10.08877
v 0.8693008 0.8789992 12.40467
v 0.7226478 0.711593 12.0293
v 1.951476 0.711593 10.11226
v 0.7226478 0.8789992 12.0293
v 1.951476 0.8789992 10.11226
v 0.6099758 0.711593 7.961288
v 2.353792 0.711593 10.08877
v 0.6099758 0.8789992 7.961288
v 2.353792 0.8789992 10.08877
v 1.951476 0.711593 10.11226
v 0.5079842 0.711593 8.351169
v 1.951476 0.8789992 10.11226
v 0.5079842 0.8789992 8.351169
v -1.952253 0.711593 8.962326
v 0.6099758 0.711593 7.961288
v -1.952253 0.8789992 8.962326
v 0.6099758 0.8789992 7.961288
v 0.5079842 0.711593 8.351169
v -1.612972 0.711593 9.179806
v 0.5079842 0.8789992 8.351169
v -1.612972 0.8789992 9.179806
v -1.791981 0.8789992 11.70849
v -1.952253 0.8789992 8.962326
v -1.791981 1.046406 11.70849
v -1.952253 1.046406 8.962326
v -1.612972 0.8789992 9.179806
v -1.480302 0.8789992 11.45302
v -1.612972 1.046406 9.179806
v -1.480302 1.046406 11.45302
v 0.8693008 0.8789992 12.40467
v -1.791981 0.8789992 11.70849
v 0.8693008 1.046406 12.40467
v -1.791981 1.046406 11.70849
v -1.480302 0.8789992 11.45302
v 0.7226478 0.8789992 12.0293
v -1.480302 1.046406 11.45302
v 0.7226478 1.046406 12.0293
v 2.353792 0.8789992 10.08877
v 0.8693008 0.8789992 12.40467
v 2.353792 1.046406 10.08877
v 0.8693008 1.046406 12.40467
v 0.7226478 0.8789992 12.0293
v 1.951476 0.8789992 10.11226
v 0.7226478 1.046406 12.0293
v 1.951476 1.046406 10.11226
v 0.6099758 0.8789992 7.961288
v 2.353792 0.8789992 10.08877
v 0.6099758 1.046406 7.961288
v 2.353792 1.046406 10.08877
v 1.951476 0.8789992 10.11226
v 0.5079842 0.8789992 8.351169
v 1.951476 1.046406 10.11226
v 0.5079842 1.046406 8.351169
v -1.952253 0.8789992 8.962326
v 0.6099758 0.8789992 7.961288
v -1.952253 1.046406 8.962326
v 0.6099758 1.046406 7.961288
v 0.5079842 0.8789992 8.351169
v -1.612972 0.8789992 9.179806
v 0.5079842 1.046406 8.351169
v -1.612972 1.046406 9.179806
v -1.952253 0.711593 8.962326
v -1.791981 0.711593 11.70849
v -1.612972 0.711593 9.179806
v -1.480302 0.711593 11.45302
v -1.791981 1.046406 11.70849
v -1.952253 1.046406 8.962326
v -1.480302 1.046406 11.45302
v -1.612972 1.046406 9.179806
v -1.791981 0.711593 11.70849
v 0.8693008 0.711593 12.40467
v -1.480302 0.711593 11.45302
v 0.7226478 0.711593 12.0293
v 0.8693008 1.046406 12.40467
v -1.791981 1.046406 11.70849
v 0.7226478 1.046406 12.0293
v -1.480302 1.046406 11.45302
v 0.8693008 0.711593 12.40467
v 2.353792 0.711593 10.08877
v 0.7226478 0.711593 12.0293
v 1.951476 0.711593 10.11226
v 2.353792 1.046406 10.08877
v 0.8693008 1.046406 12.40467
v 1.951476 1.046406 10.11226
v 0.7226478 1.046406 12.0293
v 2.353792 0.711593 10.08877
v 0.6099758 0.711593 7.961288
v 1.951476 0.711593 10.11226
v 0.5079842 0.711593 8.351169
v 0.6099758 1.046406 7.961288
v 2.353792 1.046406 10.08877
v 0.5079842 1.046406 8.351169
v 1.951476 1.046406 10.11226
v 0.6099758 0.711593 7.961288
v -1.952253 0.711593 8.962326
v 0.5079842 0.711593 8.351169
v -1.612972 0.711593 9.179806
v -1.952253 1.046406 8.962326
v 0.6099758 1.046406 7.961288
v -1.612972 1.046406 9.179806
v 0.5079842 1.046406 8.351169

vn -1.297792 0 0.07574163
vn -1.297792 0 0.07574163
vn -1.297792 0 0.07574163
vn -1.297792 0 0.07574163
vn 1.297792 0 -0.07574174
vn 1.297792 0 -0.07574174
vn 1.297792 0 -0.07574174
vn 1.297792 0 -0.07574174
vn -0.3290049 0 1.257679
vn -0.3290049 0 1.257679
vn -0.3290049 0 1.257679
vn -0.3290049 0 1.257679
vn 0.329005 0 -1.257679
vn 0.329005 0 -1.257679
vn 0.329005 0 -1.257679
vn 0.329005 0 -1.257679
vn 1.094455 0 0.7015465
vn 1.094455 0 0.7015465
vn 1.094455 0 0.7015465
vn 1.094455 0 0.7015465
vn -1.094455 0 -0.7015464
vn -1.094455 0 -0.7015464
vn -1.094455 0 -0.7015464
vn -1.094455 0 -0.7015464
vn 1.005416 0 -0.8240992
vn 1.005416 0 -0.8240992
vn 1.005416 0 -0.8240992
vn 1.005416 0 -0.8240992
vn -1.005416 0 0.8240991
vn -1.005416 0 0.8240991
vn -1.005416 0 0.8240991
vn -1.005416 0 0.8240991
vn -0.4730744 0 -1.210868
vn -0.4730744 0 -1.210868
vn -0.4730744 0 -1.210868
vn -0.4730744 0 -1.210868
vn 0.4730744 0 1.210868
vn 0.4730744 0 1.210868
vn 0.4730744 0 1.210868
vn 0.4730744 0 1.210868
vn -1.297792 0 0.07574163
vn -1.297792 0 0.07574163
vn -1.297792 0 0.07574163
vn -1.297792 0 0.07574163
vn 1.297792 0 -0.07574174
vn 1.297792 0 -0.07574174
vn 1.297792 0 -0.07574174
vn 1.297792 0 -0.07574174
vn -0.3290049 0 1.257679
vn -0.3290049 0 1.257679
vn -0.3290049 0 1.257679
vn -0.3290049 0 1.257679
vn 0.329005 0 -1.257679
vn 0.329005 0 -1.257679
vn 0.329005 0 -1.257679
vn 0.329005 0 -1.257679
vn 1.094455 0 0.7015465
vn 1.094455 0 0.7015465
vn 1.094455 0 0.7015465
vn 1.094455 0 0.7015465
vn -1.094455 0 -0.7015464
vn -1.094455 0 -0.7015464
vn -1.094455 0 -0.7015464
vn -1.094455 0 -0.7015464
vn 1.005416 0 -0.8240992
vn 1.005416 0 -0.8240992
vn 1.005416 0 -0.8240992
vn 1.005416 0 -0.8240992
vn -1.005416 0 0.8240991
vn -1.005416 0 0.8240991
vn -1.005416 0 0.8240991
vn -1.005416 0 0.8240991
vn -0.4730744 0 -1.210868
vn -0.4730744 0 -1.210868
vn -0.4730744 0 -1.210868
vn -0.4730744 0 -1.210868
vn 0.4730744 0 1.210868
vn 0.4730744 0 1.210868
vn 0.4730744 0 1.210868
vn 0.4730744 0 1.210868
vn 0 -0.669625 0
vn 0 -0.6696251 0
vn 0 -0.6696251 0
vn 0 -0.669625 0
vn 0 0.6696251 0
vn 0 0.6696251 0
vn 0 0.6696251 0
vn 0 0.6696251 0
vn 0 -0.669625 0
vn 0 -0.6696251 0
vn 0 -0.6696251 0
vn 0 -0.669625 0
vn 0 0.6696251 0
vn 0 0.6696251 0
vn 0 0.6696251 0
vn 0 0.6696251 0
vn 0 -0.6696251 0
vn 0 -0.6696251 0
vn 0 -0.669625 0
vn 0 -0.6696251 0
vn 0 0.6696251 0
vn 0 0.6696251 0
vn 0 0.6696251 0
vn 0 0.6696251 0
vn 0 -0.669625 0
vn 0 -0.6696251 0
vn 0 -0.6696251 0
vn 0 -0.669625 0
vn 0 0.669625 0
vn 0 0.6696251 0
vn 0 0.6696251 0
vn 0 0.669625 0
vn 0 -0.6696251 0
vn 0 -0.6696251 0
vn 0 -0.669625 0
vn 0 -0.6696251 0
vn 0 0.6696251 0
vn 0 0.6696251 0
vn 0 0.669625 0
vn 0 0.6696251 0

vt 0 0
vt -2.116027 0
vt 0 0.25
vt -2.116027 0.25
vt 1.933814 0
vt 0.1822135 0
vt 1.933814 0.25
vt 0.1822135 0.25
vt 2.116027 0
vt 0 0
vt 2.116027 0.25
vt 0 0.25
vt -0.1822134 0
vt -1.933814 0
vt -0.1822134 0.25
vt -1.933814 0.25
vt 2.769915 0
vt 0.6538885 0
vt 2.769915 0.25
vt 0.6538885 0.25
vt -0.8361018 0
vt -2.587702 0
vt -0.8361018 0.25
vt -2.587702 0.25
vt 1.058013 0
vt -1.058014 0
vt 1.058013 0.25
vt -1.058014 0.25
vt 0.8758001 0
vt -0.8758004 0
vt 0.8758001 0.25
vt -0.8758004 0.25
vt -0.6538885 0
vt -2.769915 0
vt -0.6538885 0.25
vt -2.769915 0.25
vt 2.587702 0
vt 0.8361018 0
vt 2.587702 0.25
vt 0.8361018 0.25
vt 0 0.25
vt -2.116027 0.25
vt 0 0.5
vt -2.116027 0.5
vt 1.933814 0.25
vt 0.1822135 0.25
vt 1.933814 0.5
vt 0.1822135 0.5
vt 2.116027 0.25
vt 0 0.25
vt 2.116027 0.5
vt 0 0.5
vt -0.1822134 0.25
vt -1.933814 0.25
vt -0.1822134 0.5
vt -1.933814 0.5
vt 2.769915 0.25
vt 0.6538885 0.25
vt 2.769915 0.5
vt 0.6538885 0.5
vt -0.8361018 0.25
vt -2.587702 0.25
vt -0.8361018 0.5
vt -2.587702 0.5
vt 1.058013 0.25
vt -1.058014 0.25
vt 1.058013 0.5
vt -1.058014 0.5
vt 0.8758001 0.25
vt -0.8758004 0.25
vt 0.8758001 0.5
vt -0.8758004 0.5
vt -0.6538885 0.25
vt -2.769915 0.25
vt -0.6538885 0.5
vt -2.769915 0.5
vt 2.587702 0.25
vt 0.8361018 0.25
vt 2.587702 0.5
vt 0.8361018 0.5
vt -1.243769 -1.711902
vt 0 0
vt -0.9337695 -1.711902
vt 0.09579524 -0.2948276
vt 0 0
vt 1.243769 -1.711902
vt -0.09579524 -0.2948276
vt 0.9337695 -1.711902
vt 0 0
vt 2.012461 -0.6538885
vt 0.09579524 -0.2948276
vt 1.761666 -0.8361018
vt -2.012461 -0.6538885
vt 0 0
vt -1.761666 -0.8361018
vt -0.09579524 -0.2948276
vt 2.012461 -0.6538885
vt 2.012461 -2.769915
vt 1.761666 -0.8361018
vt 1.761666 -2.587702
vt -2.012461 -2.769915
vt -2.012461 -0.6538885
vt -1.761666 -2.587702
vt -1.761666 -0.8361018
vt 2.012461 -2.769915
vt -2.384186E-07 -3.423803
vt 1.761666 -2.587702
vt 0.09579504 -3.128976
vt 2.384186E-07 -3.423803
vt -2.012461 -2.769915
vt -0.09579504 -3.128976
vt -1.761666 -2.587702
vt -2.384186E-07 -3.423803
vt -1.243769 -1.711902
vt 0.09579504 -3.128976
vt -0.9337695 -1.711902
vt 1.243769 -1.711902
vt 2.384186E-07 -3.423803
vt 0.9337695 -1.711902
vt -0.09579504 -3.128976

g Reset
usemtl Default_Prototype
f 3/3/3 4/4/4 2/2/2 1/1/1
f 7/7/7 8/8/8 6/6/6 5/5/5
f 11/11/11 12/12/12 10/10/10 9/9/9
f 15/15/15 16/16/16 14/14/14 13/13/13
f 19/19/19 20/20/20 18/18/18 17/17/17
f 23/23/23 24/24/24 22/22/22 21/21/21
f 27/27/27 28/28/28 26/26/26 25/25/25
f 31/31/31 32/32/32 30/30/30 29/29/29
f 35/35/35 36/36/36 34/34/34 33/33/33
f 39/39/39 40/40/40 38/38/38 37/37/37
f 43/43/43 44/44/44 42/42/42 41/41/41
f 47/47/47 48/48/48 46/46/46 45/45/45
f 51/51/51 52/52/52 50/50/50 49/49/49
f 55/55/55 56/56/56 54/54/54 53/53/53
f 59/59/59 60/60/60 58/58/58 57/57/57
f 63/63/63 64/64/64 62/62/62 61/61/61
f 67/67/67 68/68/68 66/66/66 65/65/65
f 71/71/71 72/72/72 70/70/70 69/69/69
f 75/75/75 76/76/76 74/74/74 73/73/73
f 79/79/79 80/80/80 78/78/78 77/77/77
f 83/83/83 84/84/84 82/82/82 81/81/81
f 87/87/87 88/88/88 86/86/86 85/85/85
f 91/91/91 92/92/92 90/90/90 89/89/89
f 95/95/95 96/96/96 94/94/94 93/93/93
f 99/99/99 100/100/100 98/98/98 97/97/97
f 103/103/103 104/104/104 102/102/102 101/101/101
f 107/107/107 108/108/108 106/106/106 105/105/105
f 111/111/111 112/112/112 110/110/110 109/109/109
f 115/115/115 116/116/116 114/114/114 113/113/113
f 119/119/119 120/120/120 118/118/118 117/117/117

